<svg width="222" height="61" viewBox="0 0 222 61" fill="none" xmlns="http://www.w3.org/2000/svg">
<path d="M17.3563 48.64C14.2843 48.64 11.5536 48.256 9.16425 47.488C6.77492 46.72 4.53492 45.4187 2.44425 43.584C1.29225 42.56 0.71625 41.4293 0.71625 40.192C0.71625 39.2107 1.07892 38.3573 1.80425 37.632C2.52958 36.864 3.40425 36.48 4.42825 36.48C5.23892 36.48 5.96425 36.736 6.60425 37.248C8.31092 38.656 9.97492 39.68 11.5963 40.32C13.2176 40.96 15.1376 41.28 17.3563 41.28C19.7456 41.28 21.7936 40.7467 23.5003 39.68C25.2496 38.6133 26.1243 37.2907 26.1243 35.712C26.1243 33.792 25.2709 32.2987 23.5643 31.232C21.8576 30.1227 19.1483 29.2907 15.4363 28.736C6.09225 27.3707 1.42025 23.0187 1.42025 15.68C1.42025 12.992 2.12425 10.6667 3.53225 8.704C4.94025 6.69867 6.86025 5.184 9.29225 4.16C11.7243 3.09333 14.4336 2.56 17.4203 2.56C20.1083 2.56 22.6256 2.96533 24.9723 3.776C27.3616 4.58666 29.3456 5.65333 30.9243 6.976C32.1616 7.95733 32.7803 9.088 32.7803 10.368C32.7803 11.3493 32.4176 12.224 31.6923 12.992C30.9669 13.7173 30.1136 14.08 29.1323 14.08C28.4923 14.08 27.9163 13.888 27.4043 13.504C26.2949 12.608 24.7376 11.7973 22.7323 11.072C20.7696 10.304 18.9989 9.92 17.4203 9.92C14.7323 9.92 12.6416 10.432 11.1483 11.456C9.69758 12.4373 8.97225 13.7387 8.97225 15.36C8.97225 17.1947 9.71892 18.5813 11.2123 19.52C12.7483 20.4587 15.1376 21.2267 18.3803 21.824C22.0496 22.464 24.9723 23.296 27.1483 24.32C29.3669 25.3013 31.0309 26.6667 32.1403 28.416C33.2496 30.1227 33.8043 32.4053 33.8043 35.264C33.8043 37.952 33.0363 40.32 31.5003 42.368C30.0069 44.3733 28.0016 45.9307 25.4843 47.04C22.9669 48.1067 20.2576 48.64 17.3563 48.64ZM58.2318 13.12C61.1758 13.12 63.8424 13.888 66.2318 15.424C68.6211 16.9173 70.4984 19.008 71.8638 21.696C73.2718 24.384 73.9757 27.4347 73.9757 30.848C73.9757 34.2613 73.2931 37.3333 71.9278 40.064C70.5624 42.752 68.6851 44.864 66.2958 46.4C63.9491 47.8933 61.3464 48.64 58.4878 48.64C56.4398 48.64 54.4984 48.2347 52.6638 47.424C50.8718 46.5707 49.3784 45.5467 48.1838 44.352V56.896C48.1838 58.0053 47.8211 58.9227 47.0958 59.648C46.3704 60.416 45.4531 60.8 44.3438 60.8C43.2344 60.8 42.3171 60.4373 41.5918 59.712C40.8664 58.9867 40.5038 58.048 40.5038 56.896V17.664C40.5038 16.5547 40.8664 15.6373 41.5918 14.912C42.3171 14.144 43.2344 13.76 44.3438 13.76C45.4531 13.76 46.3704 14.144 47.0958 14.912C47.8211 15.6373 48.1838 16.5547 48.1838 17.664V17.92C49.2078 16.64 50.6371 15.5307 52.4718 14.592C54.3064 13.6107 56.2264 13.12 58.2318 13.12ZM57.2718 41.6C60.0024 41.6 62.2424 40.576 63.9918 38.528C65.7411 36.48 66.6158 33.92 66.6158 30.848C66.6158 27.776 65.7411 25.2373 63.9918 23.232C62.2851 21.184 60.0451 20.16 57.2718 20.16C54.4984 20.16 52.2371 21.184 50.4878 23.232C48.7384 25.2373 47.8638 27.776 47.8638 30.848C47.8638 33.92 48.7384 36.48 50.4878 38.528C52.2371 40.576 54.4984 41.6 57.2718 41.6ZM113.275 30.912C113.275 34.3253 112.507 37.3973 110.971 40.128C109.435 42.816 107.323 44.9067 104.635 46.4C101.989 47.8933 99.0668 48.64 95.8668 48.64C92.6241 48.64 89.6801 47.8933 87.0348 46.4C84.3894 44.9067 82.2988 42.816 80.7628 40.128C79.2268 37.3973 78.4588 34.3253 78.4588 30.912C78.4588 27.4987 79.2268 24.448 80.7628 21.76C82.2988 19.0293 84.3894 16.9173 87.0348 15.424C89.6801 13.888 92.6241 13.12 95.8668 13.12C99.0668 13.12 101.989 13.888 104.635 15.424C107.323 16.9173 109.435 19.0293 110.971 21.76C112.507 24.448 113.275 27.4987 113.275 30.912ZM105.595 30.912C105.595 28.8213 105.147 26.9653 104.251 25.344C103.397 23.68 102.224 22.4 100.731 21.504C99.2801 20.608 97.6588 20.16 95.8668 20.16C94.0748 20.16 92.4321 20.608 90.9388 21.504C89.4881 22.4 88.3148 23.68 87.4188 25.344C86.5654 26.9653 86.1388 28.8213 86.1388 30.912C86.1388 33.0027 86.5654 34.8587 87.4188 36.48C88.3148 38.1013 89.4881 39.36 90.9388 40.256C92.4321 41.152 94.0748 41.6 95.8668 41.6C97.6588 41.6 99.2801 41.152 100.731 40.256C102.224 39.36 103.397 38.1013 104.251 36.48C105.147 34.8587 105.595 33.0027 105.595 30.912ZM136.203 40.768C136.801 40.768 137.334 41.0667 137.803 41.664C138.315 42.2187 138.571 42.9653 138.571 43.904C138.571 45.056 137.931 46.0373 136.651 46.848C135.414 47.616 134.006 48 132.427 48C129.782 48 127.542 47.4453 125.707 46.336C123.915 45.184 123.019 42.7733 123.019 39.104V21.44H120.075C119.051 21.44 118.198 21.0987 117.515 20.416C116.833 19.7333 116.491 18.88 116.491 17.856C116.491 16.8747 116.833 16.064 117.515 15.424C118.198 14.7413 119.051 14.4 120.075 14.4H123.019V10.304C123.019 9.19467 123.382 8.27733 124.107 7.552C124.875 6.784 125.814 6.4 126.923 6.4C127.99 6.4 128.886 6.784 129.611 7.552C130.337 8.27733 130.699 9.19467 130.699 10.304V14.4H135.243C136.267 14.4 137.121 14.7413 137.803 15.424C138.486 16.1067 138.827 16.96 138.827 17.984C138.827 18.9653 138.486 19.7973 137.803 20.48C137.121 21.12 136.267 21.44 135.243 21.44H130.699V38.784C130.699 39.68 130.934 40.3413 131.403 40.768C131.873 41.152 132.513 41.344 133.323 41.344C133.665 41.344 134.134 41.2587 134.731 41.088C135.243 40.8747 135.734 40.768 136.203 40.768ZM153.111 44.096C153.111 45.2053 152.748 46.144 152.023 46.912C151.297 47.6373 150.38 48 149.271 48C148.161 48 147.244 47.6373 146.519 46.912C145.793 46.144 145.431 45.2053 145.431 44.096V17.664C145.431 16.5547 145.793 15.6373 146.519 14.912C147.244 14.144 148.161 13.76 149.271 13.76C150.38 13.76 151.297 14.144 152.023 14.912C152.748 15.6373 153.111 16.5547 153.111 17.664V44.096ZM149.207 9.6C147.756 9.6 146.732 9.36533 146.135 8.896C145.537 8.42666 145.239 7.59466 145.239 6.4V5.184C145.239 3.98933 145.559 3.15733 146.199 2.688C146.839 2.21866 147.863 1.984 149.271 1.984C150.764 1.984 151.809 2.21866 152.407 2.688C153.004 3.15733 153.303 3.98933 153.303 5.184V6.4C153.303 7.63733 152.983 8.49066 152.343 8.96C151.745 9.38667 150.7 9.6 149.207 9.6ZM177.452 7.424C176.001 7.424 174.977 7.85067 174.38 8.704C173.782 9.51466 173.484 10.4107 173.484 11.392V14.4H179.308C180.332 14.4 181.185 14.7413 181.868 15.424C182.55 16.064 182.892 16.896 182.892 17.92C182.892 18.944 182.55 19.7973 181.868 20.48C181.185 21.12 180.332 21.44 179.308 21.44H173.484V44.096C173.484 45.2053 173.121 46.144 172.396 46.912C171.67 47.6373 170.753 48 169.644 48C168.534 48 167.617 47.6373 166.892 46.912C166.166 46.144 165.804 45.2053 165.804 44.096V21.44H162.348C161.324 21.44 160.47 21.12 159.788 20.48C159.105 19.7973 158.764 18.944 158.764 17.92C158.764 16.896 159.105 16.064 159.788 15.424C160.47 14.7413 161.324 14.4 162.348 14.4H165.804V11.456C165.804 8.256 166.892 5.65333 169.068 3.648C171.286 1.64267 174.465 0.639999 178.604 0.639999C180.182 0.639999 181.548 0.959999 182.7 1.6C183.894 2.24 184.492 3.22133 184.492 4.544C184.492 5.568 184.193 6.4 183.596 7.04C182.998 7.68 182.273 8 181.42 8C181.206 8 180.972 7.97867 180.716 7.936C180.502 7.89333 180.268 7.85066 180.012 7.808C178.988 7.552 178.134 7.424 177.452 7.424ZM194.924 44.096C194.924 45.2053 194.561 46.144 193.836 46.912C193.11 47.6373 192.193 48 191.084 48C189.974 48 189.057 47.6373 188.332 46.912C187.606 46.144 187.244 45.2053 187.244 44.096V17.664C187.244 16.5547 187.606 15.6373 188.332 14.912C189.057 14.144 189.974 13.76 191.084 13.76C192.193 13.76 193.11 14.144 193.836 14.912C194.561 15.6373 194.924 16.5547 194.924 17.664V44.096ZM191.02 9.6C189.569 9.6 188.545 9.36533 187.948 8.896C187.35 8.42666 187.052 7.59466 187.052 6.4V5.184C187.052 3.98933 187.372 3.15733 188.012 2.688C188.652 2.21866 189.676 1.984 191.084 1.984C192.577 1.984 193.622 2.21866 194.22 2.688C194.817 3.15733 195.116 3.98933 195.116 5.184V6.4C195.116 7.63733 194.796 8.49066 194.156 8.96C193.558 9.38667 192.513 9.6 191.02 9.6ZM219.328 40.768C219.926 40.768 220.459 41.0667 220.928 41.664C221.44 42.2187 221.696 42.9653 221.696 43.904C221.696 45.056 221.056 46.0373 219.776 46.848C218.539 47.616 217.131 48 215.552 48C212.907 48 210.667 47.4453 208.832 46.336C207.04 45.184 206.144 42.7733 206.144 39.104V21.44H203.2C202.176 21.44 201.323 21.0987 200.64 20.416C199.958 19.7333 199.616 18.88 199.616 17.856C199.616 16.8747 199.958 16.064 200.64 15.424C201.323 14.7413 202.176 14.4 203.2 14.4H206.144V10.304C206.144 9.19467 206.507 8.27733 207.232 7.552C208 6.784 208.939 6.4 210.048 6.4C211.115 6.4 212.011 6.784 212.736 7.552C213.462 8.27733 213.824 9.19467 213.824 10.304V14.4H218.368C219.392 14.4 220.246 14.7413 220.928 15.424C221.611 16.1067 221.952 16.96 221.952 17.984C221.952 18.9653 221.611 19.7973 220.928 20.48C220.246 21.12 219.392 21.44 218.368 21.44H213.824V38.784C213.824 39.68 214.059 40.3413 214.528 40.768C214.998 41.152 215.638 41.344 216.448 41.344C216.79 41.344 217.259 41.2587 217.856 41.088C218.368 40.8747 218.859 40.768 219.328 40.768Z" fill="white"/>
</svg>
