<svg width="31" height="31" viewBox="0 0 31 31" fill="none" xmlns="http://www.w3.org/2000/svg">
<path d="M10.75 25.375V4.25L30.25 1V22.125M10.75 25.375C10.75 28.0674 8.56739 30.25 5.875 30.25C3.18261 30.25 1 28.0674 1 25.375C1 22.6826 3.18261 20.5 5.875 20.5C8.56739 20.5 10.75 22.6826 10.75 25.375ZM30.25 22.125C30.25 24.8174 28.0674 27 25.375 27C22.6826 27 20.5 24.8174 20.5 22.125C20.5 19.4326 22.6826 17.25 25.375 17.25C28.0674 17.25 30.25 19.4326 30.25 22.125Z" stroke="white" stroke-width="1.5" stroke-linecap="round" stroke-linejoin="round"/>
</svg>
